<svg data-v-0dd9719b="" version="1.0" xmlns="http://www.w3.org/2000/svg" xmlns:xlink="http://www.w3.org/1999/xlink" width="100%" height="100%" viewBox="0 0 340.000000 250.000000" preserveAspectRatio="xMidYMid meet" color-interpolation-filters="sRGB" style="margin: auto;"> <rect data-v-0dd9719b="" x="0" y="0" width="100%" height="100%" fill="#fff" fill-opacity="1" class="background"></rect> <rect data-v-0dd9719b="" x="0" y="0" width="100%" height="100%" fill="url(#watermark)" fill-opacity="1" class="watermarklayer"></rect> <g data-v-0dd9719b="" fill="#333" class="icon-text-wrapper icon-svg-group iconsvg" transform="translate(47.730003356933594,95.0059986114502)"><g class="iconsvg-imagesvg" transform="translate(0,0)"><g><rect fill="#333" fill-opacity="0" stroke-width="2" x="0" y="0" width="60" height="59.9880023995201" class="image-rect"></rect> <svg x="0" y="0" width="60" height="59.9880023995201" filtersec="colorsb9574651557" class="image-svg-svg primary" style="overflow: visible;"><svg xmlns="http://www.w3.org/2000/svg" viewBox="-0.010361194610595703 0 154.09034729003906 154.05999755859375"><path d="M43.38 122.71c-1.94-4.19-3.73-8.07-5.53-11.94Q20.83 74 3.78 37.24a28 28 0 0 0-1.33-2.82C.38 31-.09 27.26 0 23.28.2 16.22.1 9.15 0 2.09 0 .57.33 0 2 0q75 .08 150.07 0c1.42 0 1.9.38 1.89 1.84-.07 6.08-.1 12.16 0 18.23 0 1.81-.55 2.22-2.26 2.21-21-.05-41.91 0-62.87-.06A2.57 2.57 0 0 0 86 24.05q-17.55 41-35.23 82-3.33 7.74-6.67 15.46a13.45 13.45 0 0 1-.72 1.2z" fill="#2b8e9d"></path><path d="M154.05 110.72v41.34c0 1.47-.31 2-1.9 2q-36.48-.08-72.95 0C77 154 77 154 77.9 152q8-18.07 15.95-36.18 6.63-15.09 13.24-30.19c2.47-5.61 5-11.21 7.38-16.84a2.33 2.33 0 0 1 2.53-1.68q17.54.08 35.08 0c1.66 0 2 .57 2 2.11-.08 13.83-.03 27.67-.03 41.5z" fill="#73cba0"></path><path d="M125.71 37h26.4c1.58 0 2 .5 1.94 2q-.15 4.51 0 9c.05 1.4-.32 1.89-1.82 1.89-14.41-.06-28.83 0-43.24-.09-1.7 0-2.61.44-3.27 2-3.63 8.69-7.36 17.34-11 26q-5.26 12.36-10.49 24.73-7.66 17.83-15.23 35.68c-2.07 4.88-4.14 9.77-6.16 14.68-.43 1-1.15 1.13-2.08 1.12H49.12c-1.85 0-2-.14-1.22-1.86q4.85-11.32 9.72-22.63 7.26-16.89 14.51-33.77 8.81-20.48 17.61-40.95c2.28-5.31 4.59-10.62 6.79-16a2.57 2.57 0 0 1 2.81-1.89c8.77.09 17.57.09 26.37.09zM.07 68.34a16 16 0 0 1 2.22 4q7.69 16.5 15.36 33 11 23.66 22 47.31c.58 1.24.13 1.38-.93 1.38H1.57c-1.83 0-1.52-1.11-1.52-2.17V68.34z" fill="#73cba0"></path></svg></svg> <!----></g></g> <g transform="translate(67,1.869943618774414)"><g data-gra="path-name" fill-rule="" class="tp-name iconsvg-namesvg" transform="translate(0,0)"><g transform="scale(1)"><g><path d="M4.44-37.05L4.44-37.05 4.83-37.35Q10.99-37.13 12.79-34.28L12.79-34.28Q13.89-32.48 12.77-30.98 11.65-29.49 9.67-30.1L9.67-30.1Q9.27-30.23 8.88-30.45L8.88-30.45Q7.87-33.79 4.44-37.05ZM1.19-26.98L1.19-26.98 1.54-27.33Q7.51-26.94 9.05-24.08L9.05-24.08Q9.98-22.37 8.88-20.96L8.88-20.96Q7.73-19.51 5.84-20.21L5.84-20.21Q5.45-20.39 5.01-20.65L5.01-20.65Q4.35-24.04 1.19-26.98ZM14.28-30.28L14.28-30.28 15.03-30.1Q10.77-16.48 9.8-11.91L9.8-11.91Q9.14-9.36 9.14-7.65L9.14-7.65Q9.18-6.77 10.11-4.39 11.03-2.02 10.94 0.22L10.94 0.22Q10.85 1.89 9.82 2.92 8.79 3.96 7.16 3.96L7.16 3.96Q5.23 3.96 4.75 1.67L4.75 1.67Q5.36-1.8 5.23-4.53 5.1-7.25 4.26-7.78L4.26-7.78Q3.38-8.48 1.98-8.53L1.98-8.53 1.98-9.36 4-9.36Q4.39-9.36 4.55-9.38 4.7-9.4 4.92-9.6 5.14-9.8 5.36-10.28L5.36-10.28Q6.33-12 14.28-30.28ZM41.92-10.02L42.5-10.02 42.63-2.64Q43.55-2.24 43.88-1.78 44.21-1.32 44.21-0.53L44.21-0.53Q44.21 1.1 42.39 1.85 40.56 2.59 35.99 2.59L35.99 2.59 32.26 2.59Q29.22 2.59 28.26 1.69 27.29 0.79 27.29-1.89L27.29-1.89 27.29-13.32Q25.49-8 21.73-3.67 17.97 0.66 11.6 4.09L11.6 4.09 11.07 3.43Q15.07 0.22 17.75-3.45 20.43-7.12 21.82-11.23 23.2-15.34 23.77-19.09 24.35-22.85 24.52-27.69L24.52-27.69 19.91-27.69Q20.39-22.63 17.84-20.83L17.84-20.83Q16.26-19.69 14.81-20.48L14.81-20.48Q13.32-21.27 13.89-23.07L13.89-23.07Q14.06-23.73 14.55-24.39L14.55-24.39Q17.71-27.03 18.5-31.95L18.5-31.95 19.03-31.95Q19.6-29.79 19.73-28.87L19.73-28.87 24.57-28.87Q24.61-31.9 24.61-38.06L24.61-38.06 31.46-37.4Q31.33-36.34 29.84-36.12L29.84-36.12Q29.75-31.2 29.66-28.87L29.66-28.87 36.74-28.87 39.33-31.46 43.77-27.25Q43.33-26.81 42.01-26.67L42.01-26.67Q38.36-23.12 35.82-21.18L35.82-21.18 35.33-21.4Q36.17-24.21 36.96-27.69L36.96-27.69 29.62-27.69Q29.49-24.35 29.09-21.23L29.09-21.23 33.75-20.83Q33.66-19.82 32.3-19.64L32.3-19.64 32.3-3.21Q32.3-2.68 32.56-2.48 32.83-2.29 33.66-2.29L33.66-2.29 36.47-2.29Q38.54-2.29 39.02-2.33L39.02-2.33Q39.55-2.33 39.9-3.03L39.9-3.03Q40.61-4.26 41.92-10.02L41.92-10.02ZM69.7-17.14L69.7-2.02 80.9-2.02 80.9-17.14 69.7-17.14ZM80.9-18.46L80.9-33.18 69.7-33.18 69.7-18.46 80.9-18.46ZM53.26-9.98L56.03-9.98Q58.1-9.98 58.1-12.74L58.1-12.74Q58.1-18.02 54.71-22.06L54.71-22.06Q56.47-27.99 57.48-33.75L57.48-33.75 53.26-33.75 53.26-9.98ZM80.64-34.45L83.32-37.57 88.2-33.62Q87.5-32.83 86.18-32.61L86.18-32.61 86.18 1.67Q86.18 1.85 85.65 2.22 85.12 2.59 84.05 2.92 82.97 3.25 81.83 3.25L81.83 3.25 80.9 3.25 80.9-0.75 69.7-0.75 69.7 2.42Q69.7 2.64 69.21 2.97 68.73 3.3 67.72 3.6 66.71 3.91 65.52 3.91L65.52 3.91 64.6 3.91 64.6-32.48Q64.03-32.26 63.11-32.26L63.11-32.26Q59.02-25.62 55.9-22.15L55.9-22.15Q59.46-20.08 61.26-17.12 63.06-14.15 63.06-11.16L63.06-11.16Q63.06-7.78 61.46-5.93 59.85-4.09 56.07-4.04L56.07-4.04Q56.07-7.16 55.46-8.26L55.46-8.26Q54.93-9.1 53.26-9.45L53.26-9.45 53.26 2.37Q53.26 2.59 52.8 2.97 52.34 3.34 51.35 3.67 50.36 4 49.22 4L49.22 4 48.34 4 48.34-37.18 53.88-35.02 57.13-35.02 59.94-37.71 64.6-33.4 64.6-36.65 70.27-34.45 80.64-34.45ZM99.62-0.62L124.94-0.62 128.01-4.53Q131.53-1.89 133.64-0.04L133.64-0.04Q133.46 0.66 132.41 0.66L132.41 0.66 99.62 0.66 99.62 2.59Q99.62 2.77 99.12 3.1 98.61 3.43 97.54 3.74 96.46 4.04 95.23 4.04L95.23 4.04 94.22 4.04 94.22-36.87 100.2-34.37 124.01-34.37 127-38.14Q130.34-35.6 132.36-33.79L132.36-33.79Q132.19-33.09 131.09-33.09L131.09-33.09 99.62-33.09 99.62-0.62ZM117.38-2.9L117.38-2.9 116.46-2.9 116.46-18.94 109.78-18.94Q109.73-16.7 109.4-14.79 109.07-12.88 108.24-10.59 107.4-8.31 105.62-6.28 103.84-4.26 101.25-2.72L101.25-2.72 100.85-3.3Q103.32-6.68 104.06-10.77 104.81-14.85 104.81-20.08L104.81-20.08 104.81-28.96 110.7-26.98Q118.17-29.27 122.39-31.77L122.39-31.77 127.71-27.29Q126.83-26.54 124.89-27.16L124.89-27.16Q118.78-25.75 109.78-25.53L109.78-25.53 109.78-20.26 123.57-20.26 126.3-23.64Q129.42-21.31 131.35-19.64L131.35-19.64Q131.18-18.94 130.08-18.94L130.08-18.94 121.51-18.94 121.51-4.13Q121.51-4 121.05-3.71 120.59-3.43 119.55-3.16 118.52-2.9 117.38-2.9ZM154.91-28.26L146.73-28.26 146.73-18.54 154.91-18.54 154.91-28.26ZM168.53-18.54L168.53-28.26 160.27-28.26 160.27-18.54 168.53-18.54ZM168.53-14.41L168.53-17.23 160.22-17.23Q160-10.33 156.84-5.76L156.84-5.76Q164.27-1.98 178.73-1.54L178.73-1.54 178.73-1.05Q175.3-0.09 174.55 4.04L174.55 4.04Q161.06 2.2 154.73-3.3L154.73-3.3Q149.15 2.02 136.85 4.04L136.85 4.04 136.67 3.47Q147.7 0.13 151.88-6.28L151.88-6.28Q149.68-9.01 148.4-12.48L148.4-12.48Q147.83-11.25 145.77-7.38L145.77-7.38Q146.16-6.64 145.59-6.15L145.59-6.15 142.73-9.71Q145.5-11.43 147.88-13.58L147.88-13.58 148.1-15.12 149.77-14.55 148.75-13.27Q150.38-10.33 152.97-8.22L152.97-8.22Q154.78-11.95 154.91-17.23L154.91-17.23 146.73-17.23 146.73-15.6Q146.73-15.21 145.22-14.57 143.7-13.93 142.21-13.93L142.21-13.93 141.42-13.93 141.42-31.77 147.08-29.53 154.91-29.53 154.91-38.1 161.89-37.44Q161.76-36.39 160.27-36.17L160.27-36.17 160.27-29.53 168.09-29.53 170.55-32.21 175.74-28.3Q175.21-27.69 173.94-27.42L173.94-27.42 173.94-15.82Q173.89-15.51 172.29-14.96 170.68-14.41 169.45-14.41L169.45-14.41 168.53-14.41Z" transform="translate(-1.190000057220459, 38.13999938964844)"></path></g> <!----> <!----> <!----> <!----> <!----> <!----> <!----></g></g> <g data-gra="path-slogan" fill-rule="" class="tp-slogan iconsvg-slogansvg" fill="#333" transform="translate(1.0840911865234375,48.22999954223633)"><!----> <!----> <g transform="scale(1, 1)"><g transform="scale(1)"><path d="M6.42-5.45L6.42-5.45L5.45-5.45Q5.37-6.92 3.52-7.01L3.52-7.01Q1.80-6.97 1.80-5.66L1.80-5.66Q1.80-4.83 2.73-4.70L2.73-4.70L4.91-4.20Q6.63-3.78 6.63-2.10L6.63-2.10Q6.59 0.04 3.61 0.13L3.61 0.13Q1.97 0.13 1.30-0.55L1.30-0.55Q0.46-1.17 0.50-2.48L0.50-2.48L1.51-2.48Q1.55-0.71 3.61-0.67L3.61-0.67Q5.62-0.71 5.66-1.97L5.66-1.97Q5.83-3.02 3.99-3.36L3.99-3.36L2.39-3.69Q0.76-4.15 0.76-5.54L0.76-5.54Q0.88-7.80 3.44-7.89L3.44-7.89Q6.34-7.89 6.42-5.45ZM8.82-4.53L12.85-4.53L12.85-7.68L13.90-7.68L13.90 0L12.85 0L12.85-3.57L8.82-3.57L8.82 0L7.77 0L7.77-7.68L8.82-7.68L8.82-4.53ZM16.51-0.92L21.12-0.92L21.12 0L15.46 0L15.46-7.68L21.04-7.68L21.04-6.80L16.51-6.80L16.51-4.41L20.70-4.41L20.70-3.48L16.51-3.48L16.51-0.92ZM23.56-7.68L27.42-1.47L27.42-7.68L28.43-7.68L28.43 0L27.25 0L23.35-6.21L23.31-6.21L23.31 0L22.30 0L22.30-7.68L23.56-7.68ZM36.07-7.68L33.18-3.10L33.18 0L32.13 0L32.13-3.10L29.23-7.68L30.45-7.68L32.63-3.99L34.86-7.68L36.07-7.68ZM41.91 0L41.16-2.22L38.05-2.22L37.26 0L36.21 0L39.10-7.68L40.28-7.68L43.05 0L41.91 0ZM39.61-6.55L38.39-3.15L40.78-3.15L39.65-6.55L39.61-6.55ZM45.07-7.68L48.93-1.47L48.93-7.68L49.94-7.68L49.94 0L48.76 0L44.86-6.21L44.82-6.21L44.82 0L43.81 0L43.81-7.68L45.07-7.68ZM57.12-3.23L54.77-3.23L54.77-4.11L58.12-4.11L58.12 0L57.45 0L57.20-0.97Q56.32 0.08 54.68 0.13L54.68 0.13Q53.13 0.13 52.29-0.67L52.29-0.67Q51.03-1.85 51.08-3.90L51.08-3.90Q51.37-7.72 54.73-7.89L54.73-7.89Q57.58-7.72 58.00-5.37L58.00-5.37L56.99-5.37Q56.57-6.97 54.68-7.01L54.68-7.01Q52.29-6.84 52.17-3.86L52.17-3.86Q52.17-0.67 54.73-0.67L54.73-0.67Q55.65-0.67 56.32-1.17L56.32-1.17Q57.16-1.85 57.12-3.23L57.12-3.23ZM68.80-5.41L68.80-5.41L67.79-5.41Q67.41-6.97 65.65-7.01L65.65-7.01Q63.22-6.88 63.13-3.90L63.13-3.90Q63.13-0.71 65.69-0.71L65.69-0.71Q67.46-0.76 67.87-2.85L67.87-2.85L68.88-2.85Q68.42 0.04 65.48 0.13L65.48 0.13Q62.13 0 62.04-3.86L62.04-3.86Q62.21-7.72 65.65-7.89L65.65-7.89Q68.38-7.80 68.80-5.41ZM73.63-3.31L71.11-3.31L71.11 0L70.06 0L70.06-7.68L73.63-7.68Q76.19-7.68 76.19-5.62L76.19-5.62Q76.19-4.36 75.10-3.78L75.10-3.78Q76.02-3.52 76.02-2.31L76.02-2.31L76.11-0.92Q76.06-0.34 76.48-0.17L76.48-0.17L76.48 0L75.18 0Q75.06-0.55 75.02-1.93L75.02-1.93Q75.06-3.31 73.63-3.31L73.63-3.31ZM73.71-6.84L71.11-6.84L71.11-4.20L73.55-4.20Q75.10-4.20 75.10-5.54L75.10-5.54Q75.10-6.84 73.71-6.84L73.71-6.84ZM82.58 0L81.82-2.22L78.72-2.22L77.92 0L76.87 0L79.76-7.68L80.94-7.68L83.71 0L82.58 0ZM80.27-6.55L79.05-3.15L81.44-3.15L80.31-6.55L80.27-6.55ZM89.42-3.48L85.65-3.48L85.65 0L84.60 0L84.60-7.68L89.93-7.68L89.93-6.80L85.65-6.80L85.65-4.41L89.42-4.41L89.42-3.48ZM92.79-6.80L90.19-6.80L90.19-7.68L96.40-7.68L96.40-6.80L93.79-6.80L93.79 0L92.79 0L92.79-6.80ZM102.78-5.45L102.78-5.45L101.82-5.45Q101.73-6.92 99.89-7.01L99.89-7.01Q98.17-6.97 98.17-5.66L98.17-5.66Q98.17-4.83 99.09-4.70L99.09-4.70L101.27-4.20Q102.99-3.78 102.99-2.10L102.99-2.10Q102.95 0.04 99.97 0.13L99.97 0.13Q98.33 0.13 97.66-0.55L97.66-0.55Q96.82-1.17 96.86-2.48L96.86-2.48L97.87-2.48Q97.91-0.71 99.97-0.67L99.97-0.67Q101.98-0.71 102.03-1.97L102.03-1.97Q102.19-3.02 100.35-3.36L100.35-3.36L98.75-3.69Q97.12-4.15 97.12-5.54L97.12-5.54Q97.24-7.80 99.80-7.89L99.80-7.89Q102.70-7.89 102.78-5.45ZM111.52-7.68L111.52 0L110.51 0L110.51-4.53Q110.51-5.16 110.51-6.46L110.51-6.46L108.33 0L107.28 0L105.14-6.46L105.10-6.46Q105.10-6 105.14-5.08L105.14-5.08Q105.14-4.62 105.14-4.53L105.14-4.53L105.14 0L104.09 0L104.09-7.68L105.60-7.68L107.82-1.17L110.01-7.68L111.52-7.68ZM117.94 0L117.19-2.22L114.08-2.22L113.29 0L112.24 0L115.13-7.68L116.31-7.68L119.08 0L117.94 0ZM115.64-6.55L114.42-3.15L116.81-3.15L115.68-6.55L115.64-6.55ZM121.10-7.68L124.96-1.47L124.96-7.68L125.97-7.68L125.97 0L124.79 0L120.89-6.21L120.85-6.21L120.85 0L119.84 0L119.84-7.68L121.10-7.68ZM131.27-4.53L135.30-4.53L135.30-7.68L136.34-7.68L136.34 0L135.30 0L135.30-3.57L131.27-3.57L131.27 0L130.22 0L130.22-7.68L131.27-7.68L131.27-4.53ZM137.95-7.68L139.00-7.68L139.00 0L137.95 0L137.95-7.68ZM146.22-5.45L146.22-5.45L145.26-5.45Q145.17-6.92 143.33-7.01L143.33-7.01Q141.61-6.97 141.61-5.66L141.61-5.66Q141.61-4.83 142.53-4.70L142.53-4.70L144.71-4.20Q146.43-3.78 146.43-2.10L146.43-2.10Q146.39 0.04 143.41 0.13L143.41 0.13Q141.77 0.13 141.10-0.55L141.10-0.55Q140.26-1.17 140.30-2.48L140.30-2.48L141.31-2.48Q141.35-0.71 143.41-0.67L143.41-0.67Q145.42-0.71 145.47-1.97L145.47-1.97Q145.63-3.02 143.79-3.36L143.79-3.36L142.19-3.69Q140.56-4.15 140.56-5.54L140.56-5.54Q140.68-7.80 143.24-7.89L143.24-7.89Q146.14-7.89 146.22-5.45ZM149.54-6.80L146.94-6.80L146.94-7.68L153.15-7.68L153.15-6.80L150.55-6.80L150.55 0L149.54 0L149.54-6.80ZM160.00-3.82L160.00-3.82Q159.83-6.84 157.31-7.01L157.31-7.01Q154.75-6.88 154.63-3.82L154.63-3.82Q154.75-0.84 157.31-0.71L157.31-0.71Q159.83-0.88 160.00-3.82ZM161.05-3.82L161.05-3.82Q160.80 0 157.31 0.13L157.31 0.13Q153.79 0 153.54-3.82L153.54-3.82Q153.75-7.80 157.31-7.89L157.31-7.89Q160.80-7.76 161.05-3.82ZM165.80-3.31L163.28-3.31L163.28 0L162.23 0L162.23-7.68L165.80-7.68Q168.36-7.68 168.36-5.62L168.36-5.62Q168.36-4.36 167.26-3.78L167.26-3.78Q168.19-3.52 168.19-2.31L168.19-2.31L168.27-0.92Q168.23-0.34 168.65-0.17L168.65-0.17L168.65 0L167.35 0Q167.22-0.55 167.18-1.93L167.18-1.93Q167.22-3.31 165.80-3.31L165.80-3.31ZM165.88-6.84L163.28-6.84L163.28-4.20L165.71-4.20Q167.26-4.20 167.26-5.54L167.26-5.54Q167.26-6.84 165.88-6.84L165.88-6.84ZM175.87-7.68L172.98-3.10L172.98 0L171.93 0L171.93-3.10L169.03-7.68L170.25-7.68L172.43-3.99L174.66-7.68L175.87-7.68Z" transform="translate(-0.5034965034965035, 7.888111888111888)"></path></g></g></g></g></g><defs v-gra="od"></defs></svg>